<svg xmlns="http://www.w3.org/2000/svg" xmlns:xlink="http://www.w3.org/1999/xlink" width="52" height="52" viewBox="0 0 52 52">
  <defs>
    <filter id="Ellipse_3" x="0" y="2" width="52" height="52" filterUnits="userSpaceOnUse">
      <feOffset dy="4" input="SourceAlpha"/>
      <feGaussianBlur stdDeviation="2" result="blur"/>
      <feFlood flood-opacity="0.161"/>
      <feComposite operator="in" in2="blur"/>
      <feComposite in="SourceGraphic"/>
    </filter>
    <clipPath id="clip-Guru_logo">
      <rect width="52" height="52"/>
    </clipPath>
  </defs>
  <g id="Guru_logo" data-name="Guru logo" clip-path="url(#clip-Guru_logo)">
    <g id="Guru_logo-2" data-name="Guru logo" transform="translate(-134 -11)">
      <g transform="matrix(1, 0, 0, 1, 134, 11)" filter="url(#Ellipse_3)">
        <circle id="Ellipse_3-2" data-name="Ellipse 3" cx="20" cy="20" r="20" transform="translate(6 4)" fill="#fff"/>
      </g>
      <g id="Group_669" data-name="Group 669" transform="translate(-9002.9 -2179.942)">
        <g id="Group_646" data-name="Group 646" transform="translate(9161.027 2211.496)">
          <g id="Group_645" data-name="Group 645" transform="translate(0 0)">
            <path id="Path_646" data-name="Path 646" d="M54.212,50.517a.684.684,0,0,1-.556-.285c-.046-.064-4.622-6.405-7.582-7.727a.683.683,0,1,1,.558-1.247c2.589,1.157,6.009,5.374,7.452,7.262l.57-1.186A13.233,13.233,0,0,0,48,40.617a.683.683,0,1,1,.511-1.268,14.5,14.5,0,0,1,7.536,7.765.684.684,0,0,1-.024.535L54.83,50.13a.683.683,0,0,1-.557.385Z" transform="translate(-45.67 -39.299)"/>
          </g>
        </g>
        <g id="Group_652" data-name="Group 652" transform="translate(9152.9 2205.942)">
          <g id="Group_651" data-name="Group 651" transform="translate(0 0)">
            <path id="Path_649" data-name="Path 649" d="M23.568,35.918l-.594-.324.031.2a4.31,4.31,0,0,1-.15-.513c-.36-3.31.319-6.014,2.016-8.036a10.682,10.682,0,0,1,6.89-3.45,7.127,7.127,0,0,1,1.075,0c.077.049-.326.454-.312.667a.716.716,0,0,1-.666.763,9.371,9.371,0,0,0-5.9,2.951c-1.431,1.71-2,4.049-1.68,6.95a.716.716,0,0,1-.635.79A.731.731,0,0,1,23.568,35.918Z" transform="translate(-22.762 -23.772)"/>
          </g>
        </g>
        <g id="Group_654" data-name="Group 654" transform="translate(9159.128 2215.553)">
          <g id="Group_653" data-name="Group 653" transform="translate(0 0)">
            <path id="Path_650" data-name="Path 650" d="M45.64,52.541H40.8a.683.683,0,1,1,0-1.367H45.64a.683.683,0,1,1,0,1.367Z" transform="translate(-40.115 -51.174)"/>
          </g>
        </g>
        <g id="Group_655" data-name="Group 655" transform="translate(9167.321 2206.923)">
          <g id="Group_649" data-name="Group 649" transform="translate(0 0)">
            <path id="Path_648" data-name="Path 648" d="M67.65,39.892a.682.682,0,0,1-.087-.005c-.156-.02-.277-.6-.118-1.6a8.957,8.957,0,0,0,.74-3.114c.563-4.4-3.523-6.952-3.7-7.033a.684.684,0,0,1-.34-.9A.672.672,0,0,1,65.069,27c.053.024,5.278,2.82,4.516,8.835a15.2,15.2,0,0,1-1.478,4.054C67.769,40.424,67.722,39.892,67.65,39.892Z" transform="translate(-64.083 -26.917)"/>
          </g>
        </g>
        <g id="Group_644" data-name="Group 644" transform="translate(9153.094 2205.962)">
          <path id="Path_3823" data-name="Path 3823" d="M1.126,12.258l1.652,5.078,4.507-6.851,7.143-7.048L14.953,2.4,10.332,1.308l-1.757.96L4.866,5.694,2.247,9.625Z" transform="translate(-0.47 -0.547)" fill="#00b58f"/>
          <g id="Group_643" data-name="Group 643" transform="translate(0 0)">
            <path id="Path_645" data-name="Path 645" d="M25.037,40.4a.681.681,0,0,1-.638-.433L22.512,35.1a.683.683,0,0,1-.008-.473c2.943-8.419,9.284-11.345,9.552-11.465a.688.688,0,0,1,.31-.059,24.263,24.263,0,0,1,5.137.973.683.683,0,0,1,.3,1.115l-2.83,3.077-.026.026c-8.241,8.047-9.24,11.554-9.249,11.589a.689.689,0,0,1-.624.511Zm-1.158-5.553,1.21,3.117c1.009-1.82,3.387-5.254,8.892-10.63l2.059-2.239a20.772,20.772,0,0,0-3.562-.614A19.024,19.024,0,0,0,23.879,34.844Z" transform="translate(-22.466 -23.104)"/>
          </g>
        </g>
      </g>
    </g>
  </g>
</svg>
